<svg xmlns="http://www.w3.org/2000/svg" version="1.1" xmlns:xlink="http://www.w3.org/1999/xlink" xmlns:svgjs="http://svgjs.dev/svgjs" width="1440" height="560" preserveAspectRatio="none" viewBox="0 0 1440 560"><g mask="url(&quot;#SvgjsMask1045&quot;)" fill="none"><rect width="1440" height="560" x="0" y="0" fill="#0e2a47"></rect><path d="M742 96L741 514" stroke-width="6" stroke="url(&quot;#SvgjsLinearGradient1046&quot;)" stroke-linecap="round" class="Up"></path><path d="M574 351L573 738" stroke-width="10" stroke="url(&quot;#SvgjsLinearGradient1047&quot;)" stroke-linecap="round" class="Down"></path><path d="M21 58L20 353" stroke-width="8" stroke="url(&quot;#SvgjsLinearGradient1046&quot;)" stroke-linecap="round" class="Up"></path><path d="M363 325L362 587" stroke-width="10" stroke="url(&quot;#SvgjsLinearGradient1047&quot;)" stroke-linecap="round" class="Down"></path><path d="M716 358L715 103" stroke-width="6" stroke="url(&quot;#SvgjsLinearGradient1046&quot;)" stroke-linecap="round" class="Up"></path><path d="M141 484L140 302" stroke-width="6" stroke="url(&quot;#SvgjsLinearGradient1047&quot;)" stroke-linecap="round" class="Down"></path><path d="M1234 98L1233 513" stroke-width="6" stroke="url(&quot;#SvgjsLinearGradient1047&quot;)" stroke-linecap="round" class="Down"></path><path d="M985 135L984 -199" stroke-width="8" stroke="url(&quot;#SvgjsLinearGradient1047&quot;)" stroke-linecap="round" class="Down"></path><path d="M902 130L901 309" stroke-width="6" stroke="url(&quot;#SvgjsLinearGradient1046&quot;)" stroke-linecap="round" class="Up"></path><path d="M1057 517L1056 720" stroke-width="10" stroke="url(&quot;#SvgjsLinearGradient1046&quot;)" stroke-linecap="round" class="Up"></path><path d="M312 436L311 718" stroke-width="8" stroke="url(&quot;#SvgjsLinearGradient1046&quot;)" stroke-linecap="round" class="Up"></path><path d="M1158 285L1157 571" stroke-width="6" stroke="url(&quot;#SvgjsLinearGradient1047&quot;)" stroke-linecap="round" class="Down"></path><path d="M452 55L451 -117" stroke-width="8" stroke="url(&quot;#SvgjsLinearGradient1046&quot;)" stroke-linecap="round" class="Up"></path><path d="M1207 201L1206 37" stroke-width="6" stroke="url(&quot;#SvgjsLinearGradient1047&quot;)" stroke-linecap="round" class="Down"></path><path d="M111 225L110 640" stroke-width="8" stroke="url(&quot;#SvgjsLinearGradient1046&quot;)" stroke-linecap="round" class="Up"></path><path d="M38 552L37 954" stroke-width="10" stroke="url(&quot;#SvgjsLinearGradient1047&quot;)" stroke-linecap="round" class="Down"></path><path d="M560 102L559 391" stroke-width="6" stroke="url(&quot;#SvgjsLinearGradient1046&quot;)" stroke-linecap="round" class="Up"></path><path d="M693 546L692 729" stroke-width="10" stroke="url(&quot;#SvgjsLinearGradient1047&quot;)" stroke-linecap="round" class="Down"></path><path d="M958 171L957 391" stroke-width="8" stroke="url(&quot;#SvgjsLinearGradient1046&quot;)" stroke-linecap="round" class="Up"></path><path d="M422 26L421 -279" stroke-width="6" stroke="url(&quot;#SvgjsLinearGradient1046&quot;)" stroke-linecap="round" class="Up"></path><path d="M1087 419L1086 622" stroke-width="6" stroke="url(&quot;#SvgjsLinearGradient1047&quot;)" stroke-linecap="round" class="Down"></path><path d="M464 268L463 93" stroke-width="10" stroke="url(&quot;#SvgjsLinearGradient1047&quot;)" stroke-linecap="round" class="Down"></path><path d="M67 126L66 436" stroke-width="8" stroke="url(&quot;#SvgjsLinearGradient1046&quot;)" stroke-linecap="round" class="Up"></path><path d="M816 530L815 844" stroke-width="8" stroke="url(&quot;#SvgjsLinearGradient1046&quot;)" stroke-linecap="round" class="Up"></path><path d="M333 202L332 502" stroke-width="8" stroke="url(&quot;#SvgjsLinearGradient1046&quot;)" stroke-linecap="round" class="Up"></path><path d="M788 288L787 -106" stroke-width="6" stroke="url(&quot;#SvgjsLinearGradient1046&quot;)" stroke-linecap="round" class="Up"></path><path d="M1084 390L1083 65" stroke-width="10" stroke="url(&quot;#SvgjsLinearGradient1046&quot;)" stroke-linecap="round" class="Up"></path><path d="M521 195L520 418" stroke-width="6" stroke="url(&quot;#SvgjsLinearGradient1046&quot;)" stroke-linecap="round" class="Up"></path><path d="M1332 182L1331 386" stroke-width="10" stroke="url(&quot;#SvgjsLinearGradient1047&quot;)" stroke-linecap="round" class="Down"></path><path d="M226 445L225 624" stroke-width="8" stroke="url(&quot;#SvgjsLinearGradient1046&quot;)" stroke-linecap="round" class="Up"></path><path d="M1076 439L1075 42" stroke-width="6" stroke="url(&quot;#SvgjsLinearGradient1046&quot;)" stroke-linecap="round" class="Up"></path><path d="M794 107L793 -163" stroke-width="8" stroke="url(&quot;#SvgjsLinearGradient1046&quot;)" stroke-linecap="round" class="Up"></path><path d="M1369 266L1368 29" stroke-width="6" stroke="url(&quot;#SvgjsLinearGradient1047&quot;)" stroke-linecap="round" class="Down"></path><path d="M345 21L344 -366" stroke-width="8" stroke="url(&quot;#SvgjsLinearGradient1046&quot;)" stroke-linecap="round" class="Up"></path><path d="M1234 346L1233 -20" stroke-width="6" stroke="url(&quot;#SvgjsLinearGradient1047&quot;)" stroke-linecap="round" class="Down"></path><path d="M1306 557L1305 888" stroke-width="8" stroke="url(&quot;#SvgjsLinearGradient1047&quot;)" stroke-linecap="round" class="Down"></path></g><defs><mask id="SvgjsMask1045"><rect width="1440" height="560" fill="#ffffff"></rect></mask><linearGradient x1="0%" y1="100%" x2="0%" y2="0%" id="SvgjsLinearGradient1046"><stop stop-color="rgba(198, 200, 9, 0)" offset="0"></stop><stop stop-color="rgba(198, 200, 9, 1)" offset="1"></stop></linearGradient><linearGradient x1="0%" y1="0%" x2="0%" y2="100%" id="SvgjsLinearGradient1047"><stop stop-color="rgba(198, 200, 9, 0)" offset="0"></stop><stop stop-color="rgba(198, 200, 9, 1)" offset="1"></stop></linearGradient></defs></svg>