<svg xmlns="http://www.w3.org/2000/svg" version="1.1" xmlns:xlink="http://www.w3.org/1999/xlink" xmlns:svgjs="http://svgjs.dev/svgjs" width="1920" height="1080" preserveAspectRatio="none" viewBox="0 0 1920 1080"><g mask="url(&quot;#SvgjsMask1141&quot;)" fill="none"><rect width="1920" height="1080" x="0" y="0" fill="rgba(12, 19, 26, 1)"></rect><path d="M847 672L846 1364" stroke-width="8" stroke="url(&quot;#SvgjsLinearGradient1142&quot;)" stroke-linecap="round" class="Down"></path><path d="M229 240L228 -53" stroke-width="6" stroke="url(&quot;#SvgjsLinearGradient1143&quot;)" stroke-linecap="round" class="Up"></path><path d="M1439 521L1438 35" stroke-width="6" stroke="url(&quot;#SvgjsLinearGradient1143&quot;)" stroke-linecap="round" class="Up"></path><path d="M510 51L509 -336" stroke-width="6" stroke="url(&quot;#SvgjsLinearGradient1142&quot;)" stroke-linecap="round" class="Down"></path><path d="M776 750L775 121" stroke-width="6" stroke="url(&quot;#SvgjsLinearGradient1142&quot;)" stroke-linecap="round" class="Down"></path><path d="M662 485L661 213" stroke-width="6" stroke="url(&quot;#SvgjsLinearGradient1143&quot;)" stroke-linecap="round" class="Up"></path><path d="M1280 847L1279 390" stroke-width="6" stroke="url(&quot;#SvgjsLinearGradient1142&quot;)" stroke-linecap="round" class="Down"></path><path d="M1086 469L1085 1096" stroke-width="6" stroke="url(&quot;#SvgjsLinearGradient1142&quot;)" stroke-linecap="round" class="Down"></path><path d="M33 773L32 404" stroke-width="10" stroke="url(&quot;#SvgjsLinearGradient1142&quot;)" stroke-linecap="round" class="Down"></path><path d="M202 867L201 1666" stroke-width="8" stroke="url(&quot;#SvgjsLinearGradient1142&quot;)" stroke-linecap="round" class="Down"></path><path d="M1718 576L1717 185" stroke-width="6" stroke="url(&quot;#SvgjsLinearGradient1143&quot;)" stroke-linecap="round" class="Up"></path><path d="M1800 811L1799 1321" stroke-width="6" stroke="url(&quot;#SvgjsLinearGradient1142&quot;)" stroke-linecap="round" class="Down"></path><path d="M1241 936L1240 547" stroke-width="8" stroke="url(&quot;#SvgjsLinearGradient1143&quot;)" stroke-linecap="round" class="Up"></path><path d="M1193 280L1192 663" stroke-width="10" stroke="url(&quot;#SvgjsLinearGradient1142&quot;)" stroke-linecap="round" class="Down"></path><path d="M920 18L919 -727" stroke-width="6" stroke="url(&quot;#SvgjsLinearGradient1142&quot;)" stroke-linecap="round" class="Down"></path><path d="M1837 216L1836 -524" stroke-width="6" stroke="url(&quot;#SvgjsLinearGradient1142&quot;)" stroke-linecap="round" class="Down"></path><path d="M950 34L949 -592" stroke-width="10" stroke="url(&quot;#SvgjsLinearGradient1142&quot;)" stroke-linecap="round" class="Down"></path><path d="M1100 525L1099 101" stroke-width="10" stroke="url(&quot;#SvgjsLinearGradient1142&quot;)" stroke-linecap="round" class="Down"></path><path d="M489 871L488 1397" stroke-width="10" stroke="url(&quot;#SvgjsLinearGradient1142&quot;)" stroke-linecap="round" class="Down"></path><path d="M954 11L953 -759" stroke-width="10" stroke="url(&quot;#SvgjsLinearGradient1142&quot;)" stroke-linecap="round" class="Down"></path><path d="M589 830L588 409" stroke-width="8" stroke="url(&quot;#SvgjsLinearGradient1142&quot;)" stroke-linecap="round" class="Down"></path><path d="M87 408L86 777" stroke-width="6" stroke="url(&quot;#SvgjsLinearGradient1142&quot;)" stroke-linecap="round" class="Down"></path><path d="M516 516L515 1150" stroke-width="8" stroke="url(&quot;#SvgjsLinearGradient1143&quot;)" stroke-linecap="round" class="Up"></path><path d="M221 312L220 -99" stroke-width="6" stroke="url(&quot;#SvgjsLinearGradient1142&quot;)" stroke-linecap="round" class="Down"></path><path d="M1486 251L1485 -287" stroke-width="6" stroke="url(&quot;#SvgjsLinearGradient1142&quot;)" stroke-linecap="round" class="Down"></path><path d="M900 79L899 512" stroke-width="6" stroke="url(&quot;#SvgjsLinearGradient1142&quot;)" stroke-linecap="round" class="Down"></path><path d="M729 762L728 1458" stroke-width="10" stroke="url(&quot;#SvgjsLinearGradient1142&quot;)" stroke-linecap="round" class="Down"></path><path d="M248 367L247 1046" stroke-width="6" stroke="url(&quot;#SvgjsLinearGradient1142&quot;)" stroke-linecap="round" class="Down"></path><path d="M1724 662L1723 -81" stroke-width="6" stroke="url(&quot;#SvgjsLinearGradient1143&quot;)" stroke-linecap="round" class="Up"></path><path d="M659 1057L658 1354" stroke-width="6" stroke="url(&quot;#SvgjsLinearGradient1143&quot;)" stroke-linecap="round" class="Up"></path><path d="M76 1057L75 1693" stroke-width="8" stroke="url(&quot;#SvgjsLinearGradient1143&quot;)" stroke-linecap="round" class="Up"></path><path d="M1853 100L1852 -211" stroke-width="8" stroke="url(&quot;#SvgjsLinearGradient1143&quot;)" stroke-linecap="round" class="Up"></path><path d="M272 266L271 961" stroke-width="6" stroke="url(&quot;#SvgjsLinearGradient1142&quot;)" stroke-linecap="round" class="Down"></path><path d="M1553 440L1552 1070" stroke-width="8" stroke="url(&quot;#SvgjsLinearGradient1142&quot;)" stroke-linecap="round" class="Down"></path><path d="M828 554L827 156" stroke-width="10" stroke="url(&quot;#SvgjsLinearGradient1143&quot;)" stroke-linecap="round" class="Up"></path><path d="M1301 416L1300 1093" stroke-width="10" stroke="url(&quot;#SvgjsLinearGradient1142&quot;)" stroke-linecap="round" class="Down"></path><path d="M1730 65L1729 -330" stroke-width="8" stroke="url(&quot;#SvgjsLinearGradient1143&quot;)" stroke-linecap="round" class="Up"></path><path d="M354 279L353 719" stroke-width="8" stroke="url(&quot;#SvgjsLinearGradient1142&quot;)" stroke-linecap="round" class="Down"></path><path d="M1344 448L1343 -274" stroke-width="8" stroke="url(&quot;#SvgjsLinearGradient1142&quot;)" stroke-linecap="round" class="Down"></path><path d="M1109 358L1108 1034" stroke-width="10" stroke="url(&quot;#SvgjsLinearGradient1143&quot;)" stroke-linecap="round" class="Up"></path><path d="M1024 495L1023 -165" stroke-width="10" stroke="url(&quot;#SvgjsLinearGradient1143&quot;)" stroke-linecap="round" class="Up"></path><path d="M287 813L286 532" stroke-width="6" stroke="url(&quot;#SvgjsLinearGradient1142&quot;)" stroke-linecap="round" class="Down"></path><path d="M775 949L774 1438" stroke-width="8" stroke="url(&quot;#SvgjsLinearGradient1143&quot;)" stroke-linecap="round" class="Up"></path><path d="M1741 365L1740 866" stroke-width="8" stroke="url(&quot;#SvgjsLinearGradient1142&quot;)" stroke-linecap="round" class="Down"></path><path d="M1424 558L1423 898" stroke-width="8" stroke="url(&quot;#SvgjsLinearGradient1142&quot;)" stroke-linecap="round" class="Down"></path><path d="M1635 618L1634 107" stroke-width="10" stroke="url(&quot;#SvgjsLinearGradient1142&quot;)" stroke-linecap="round" class="Down"></path><path d="M1595 925L1594 581" stroke-width="6" stroke="url(&quot;#SvgjsLinearGradient1142&quot;)" stroke-linecap="round" class="Down"></path><path d="M1306 153L1305 -517" stroke-width="10" stroke="url(&quot;#SvgjsLinearGradient1142&quot;)" stroke-linecap="round" class="Down"></path></g><defs><mask id="SvgjsMask1141"><rect width="1920" height="1080" fill="#ffffff"></rect></mask><linearGradient x1="0%" y1="0%" x2="0%" y2="100%" id="SvgjsLinearGradient1142"><stop stop-color="rgba(198, 200, 9, 0)" offset="0"></stop><stop stop-color="rgba(198, 200, 9, 1)" offset="1"></stop></linearGradient><linearGradient x1="0%" y1="100%" x2="0%" y2="0%" id="SvgjsLinearGradient1143"><stop stop-color="rgba(198, 200, 9, 0)" offset="0"></stop><stop stop-color="rgba(198, 200, 9, 1)" offset="1"></stop></linearGradient></defs></svg>