<?xml version="1.0" standalone="no"?>
<svg xmlns="http://www.w3.org/2000/svg" xmlns:xlink="http://www.w3.org/1999/xlink" height="1080px" width="1920px">
  <defs>
    <pattern id="doodad" width="40" height="40" viewBox="0 0 40 40" patternUnits="userSpaceOnUse" patternTransform="rotate(135)">
      <rect width="100%" height="100%" fill="rgba(26, 32, 44,1)"/>
      <path d="M0 28.5h40v3h-40zM0 8.5h40v3h-40z" fill="rgba(197, 48, 48,1)"/>
      <path d="M0 29h40v2h-40zM0 9h40v2h-40z" fill="rgba(236, 201, 75,1)"/>
      <path d="M-17 28.5h20v3h-20zM-37 28.5a 8.5-8.5 0 0 0 8.5-8.5a 11.5-11.5 0 0 1 11.5-11.5v3a-8.5 8.5 0 0 0-8.5 8.5a-11.5 11.5 0 0 1-11.5 11.5M3 28.5a 8.5-8.5 0 0 0 8.5-8.5h3a-11.5 11.5 0 0 1-11.5 11.5M-10 8.5h30v3h-30z" fill="rgba(197, 48, 48,1)"/>
      <path d="M0 29a 9-9 0 0 0 9-9a 11-11 0 0 1 11-11v2a-9 9 0 0 0-9 9a-11 11 0 0 1-11 11zM20 9h20v2h-20z" fill="rgba(236, 201, 75,1)"/>
      <path d="M23 8.5a-11.5 11.5 0 0 0-11.5 11.5h3a 8.5-8.5 0 0 1 8.5-8.5h30v-3h-30z" fill="rgba(197, 48, 48,1)"/>
    </pattern>
  </defs>
  <rect fill="url(#doodad)" height="200%" width="200%"/>
</svg>
